<!DOCTYPE svg PUBLIC "-//W3C//DTD SVG 20010904//EN" "http://www.w3.org/TR/2001/REC-SVG-20010904/DTD/svg10.dtd">
<svg version="1.0" xmlns="http://www.w3.org/2000/svg" width="1600px" height="887px" viewBox="0 0 16000 8870" preserveAspectRatio="xMidYMid meet">
<g id="layer1" fill="#000000" stroke="none">
 <path d="M7270 8856 c-155 -35 -304 -111 -440 -224 -139 -117 -231 -250 -264 -383 -20 -80 -20 -90 -1 -164 35 -138 114 -233 242 -291 49 -23 72 -27 153 -28 87 0 101 2 163 32 232 109 317 383 179 580 -20 29 -58 83 -84 120 -87 124 -87 206 0 283 25 21 49 39 54 39 4 0 27 9 51 19 23 11 49 21 57 24 30 11 -57 5 -110 -7z"/>
 <path d="M7725 8856 c11 -7 38 -19 60 -26 136 -44 192 -158 134 -277 -12 -24 -63 -89 -113 -143 -51 -55 -103 -121 -117 -147 l-24 -48 -5 -1365 c-5 -1495 0 -1383 -66 -1465 -29 -36 -69 -63 -117 -79 -45 -14 -5 -32 109 -48 65 -9 166 -24 224 -32 58 -9 152 -23 210 -31 58 -8 150 -21 205 -30 138 -21 158 -19 194 11 l31 26 0 1522 c0 1485 0 1524 -20 1580 -38 111 -82 178 -185 282 -104 104 -164 149 -284 210 -68 34 -193 73 -236 74 -19 0 -19 0 0 -14z"/>
 <path d="M5090 7669 c-250 -67 -430 -231 -496 -449 -22 -74 -23 -246 -1 -318 47 -154 156 -307 290 -406 157 -116 308 -182 782 -341 595 -200 813 -314 892 -469 20 -40 24 -60 21 -105 -4 -60 -45 -161 -80 -199 -15 -15 -19 -25 -11 -33 16 -16 98 82 139 166 18 39 38 94 44 124 6 33 10 360 10 861 0 892 -2 865 64 952 23 30 54 54 92 72 31 15 53 31 48 35 -5 4 -47 13 -94 20 -47 7 -114 16 -150 21 -36 6 -108 16 -160 24 -52 8 -135 20 -185 26 -49 7 -125 18 -169 26 -149 27 -204 14 -232 -53 -8 -18 -14 -53 -14 -78 0 -25 -3 -45 -6 -45 -3 0 -24 13 -47 29 -65 44 -183 97 -282 127 -76 23 -113 28 -235 30 -122 3 -157 1 -220 -17z m778 -205 c9 -3 12 -143 12 -659 0 -360 -2 -655 -5 -655 -10 0 -133 65 -184 97 -72 46 -155 126 -200 193 -90 133 -124 256 -124 450 0 153 14 220 71 339 84 176 278 282 430 235z"/>
 <path d="M9410 7669 c-234 -61 -410 -213 -485 -419 -24 -64 -28 -91 -28 -185 -1 -195 63 -337 222 -495 147 -147 319 -231 801 -393 377 -127 524 -184 683 -263 292 -146 364 -300 235 -498 -53 -81 -36 -93 29 -20 29 32 53 63 53 68 0 5 6 17 14 25 8 9 26 51 40 93 l26 77 0 828 c0 916 -3 872 64 964 23 32 51 54 90 72 32 15 55 31 52 35 -3 5 -45 14 -93 21 -112 15 -194 27 -313 45 -52 8 -135 20 -185 26 -49 7 -125 18 -169 26 -101 18 -166 18 -192 -1 -31 -21 -54 -76 -54 -129 0 -51 -8 -52 -65 -11 -58 42 -201 103 -304 129 -133 33 -305 36 -421 5z m783 -208 c4 -4 6 -301 5 -660 l-3 -652 -89 46 c-162 83 -276 191 -341 321 -124 252 -105 596 43 797 62 83 156 141 252 156 48 8 120 3 133 -8z"/>
 <path d="M14225 7671 c-148 -38 -255 -98 -355 -200 -254 -258 -222 -647 75 -919 152 -140 321 -221 760 -367 68 -23 317 -109 401 -139 241 -86 450 -200 525 -284 57 -65 71 -96 72 -161 0 -69 -16 -120 -60 -190 -22 -34 -31 -57 -25 -63 11 -11 99 93 131 156 59 117 55 55 61 991 l5 860 22 41 c34 64 74 105 120 126 41 18 59 48 29 48 -14 0 -232 31 -391 55 -409 64 -492 72 -524 55 -39 -20 -61 -69 -61 -134 l0 -58 -33 25 c-77 58 -230 125 -360 157 -110 26 -290 27 -392 1z m773 -207 c9 -3 12 -143 12 -659 0 -360 -3 -655 -6 -655 -3 0 -41 18 -84 41 -233 121 -355 269 -411 499 -17 73 -18 318 0 390 23 96 88 218 147 277 94 94 238 139 342 107z"/>
 <path d="M385 7660 c-3 -5 16 -20 42 -34 61 -31 95 -67 127 -136 l26 -55 0 -965 c0 -937 -1 -966 -20 -1008 -38 -83 -98 -142 -156 -154 -10 -2 -19 -10 -19 -18 0 -11 28 -19 120 -32 66 -9 167 -24 225 -33 106 -16 331 -49 450 -65 111 -16 129 -13 161 21 16 17 29 40 29 50 0 19 1 19 38 0 52 -27 199 -75 312 -103 82 -20 120 -23 280 -23 177 0 189 1 270 28 195 65 321 186 389 372 40 111 41 129 41 1012 0 592 3 868 11 905 21 99 70 164 157 207 23 12 40 26 37 31 -9 14 -1182 13 -1190 0 -4 -6 13 -19 37 -30 84 -37 139 -112 157 -214 7 -39 11 -324 11 -832 0 -687 2 -779 16 -821 21 -60 58 -115 134 -195 130 -137 142 -233 41 -320 -69 -59 -126 -73 -286 -72 -151 1 -246 19 -368 70 -33 14 -66 23 -73 20 -12 -5 -14 160 -13 1077 0 993 2 1085 17 1124 32 78 76 129 136 157 31 15 54 31 51 36 -8 13 -1182 13 -1190 0z"/>
 <path d="M3045 7660 c-3 -5 20 -21 50 -36 39 -18 67 -40 91 -73 66 -90 64 -60 64 -942 0 -778 1 -800 20 -850 23 -58 48 -93 135 -194 81 -93 95 -117 102 -174 10 -88 -42 -151 -162 -197 -74 -28 -300 -26 -405 4 -101 28 -128 37 -174 57 -27 11 -42 13 -49 6 -19 -19 166 -93 335 -133 128 -30 431 -33 523 -5 248 77 385 225 447 486 8 31 13 344 17 946 l6 900 23 42 c35 66 77 109 132 132 28 12 48 26 45 31 -8 13 -1192 13 -1200 0z"/>
 <path d="M11485 7660 c-3 -5 18 -20 47 -33 57 -25 95 -63 131 -131 l22 -41 3 -940 c2 -517 0 -963 -3 -991 -11 -92 -100 -205 -170 -216 -11 -2 -20 -10 -20 -18 0 -15 23 -20 240 -49 106 -14 339 -49 445 -66 224 -36 259 -31 289 35 l16 36 110 -52 c61 -29 166 -72 235 -96 121 -41 129 -42 255 -43 129 0 131 0 200 35 87 44 167 121 203 197 24 52 27 69 27 168 0 98 -3 116 -26 166 -48 102 -146 187 -257 224 -85 28 -200 19 -284 -23 -110 -54 -194 -154 -224 -268 -17 -66 -18 -112 -3 -186 14 -67 0 -105 -45 -127 -33 -15 -98 -5 -162 25 l-34 16 0 1062 c0 1173 -3 1122 63 1208 21 27 54 53 90 71 32 16 55 33 52 38 -8 13 -1192 12 -1200 -1z"/>
 <path d="M5001 6220 c-234 -86 -336 -349 -223 -575 100 -200 308 -373 565 -470 95 -35 247 -69 259 -57 14 14 -5 23 -85 44 -104 27 -164 77 -187 159 -17 60 29 161 122 268 137 158 120 396 -40 542 -84 76 -145 102 -262 106 -77 3 -105 0 -149 -17z"/>
 <path d="M9321 6220 c-71 -26 -123 -62 -177 -125 -56 -64 -85 -139 -92 -238 -4 -66 -1 -88 23 -155 92 -260 389 -489 743 -572 50 -12 96 -19 102 -15 20 12 -9 33 -57 40 -60 9 -89 22 -141 63 -53 42 -72 78 -72 135 0 63 23 111 93 197 100 122 112 154 112 290 0 112 -1 117 -34 178 -41 76 -126 156 -201 190 -77 36 -221 41 -299 12z"/>
 <path d="M14119 6216 c-69 -28 -104 -52 -156 -109 -125 -135 -139 -315 -41 -499 63 -118 244 -283 401 -366 120 -64 367 -142 404 -127 27 10 -4 32 -55 40 -131 19 -236 124 -218 217 11 58 53 134 105 191 85 94 116 179 109 299 -8 162 -123 308 -282 361 -75 25 -197 22 -267 -7z"/>
 <path d="M8013 4841 c-197 -49 -338 -173 -380 -334 -22 -88 -12 -199 24 -274 35 -74 129 -168 202 -202 50 -23 68 -26 166 -26 105 0 113 2 174 34 80 41 158 119 194 193 36 74 44 172 24 291 -16 100 -9 158 24 194 28 29 78 37 128 20 39 -14 51 -13 51 5 0 10 -88 51 -155 73 -145 48 -322 58 -452 26z"/>
 <path d="M6950 4139 c-193 -57 -357 -205 -437 -394 -25 -59 -53 -173 -53 -218 0 -67 31 -68 -645 32 -224 33 -240 34 -274 16 -41 -21 -61 -63 -61 -129 l0 -56 -54 35 c-78 50 -192 101 -293 131 -78 24 -106 27 -238 27 -173 1 -233 -11 -360 -73 -171 -84 -287 -217 -346 -395 -18 -54 -18 -246 0 -310 13 -47 56 -145 84 -190 104 -171 304 -315 582 -419 55 -21 111 -42 124 -47 13 -5 91 -33 175 -61 138 -46 334 -115 478 -167 81 -29 238 -102 315 -144 142 -80 233 -192 233 -287 0 -44 -35 -138 -71 -189 -19 -28 -27 -47 -21 -53 12 -12 103 94 133 155 55 112 52 65 58 987 6 916 4 874 58 953 23 33 95 87 116 87 4 0 7 -15 7 -32 1 -85 47 -221 112 -324 63 -101 196 -215 298 -254 19 -7 37 -15 39 -16 2 -2 -10 -20 -27 -41 -16 -21 -52 -81 -80 -133 -90 -170 -122 -300 -122 -500 0 -248 62 -449 197 -638 58 -81 188 -214 265 -270 88 -64 233 -137 343 -172 93 -29 290 -64 308 -53 13 8 -3 22 -47 43 -129 58 -214 272 -258 650 -18 155 -18 728 0 870 36 282 82 444 161 560 13 19 35 44 48 54 l25 18 127 -64 c69 -36 153 -76 186 -89 33 -13 61 -24 63 -24 6 -4 52 -149 65 -210 66 -297 75 -860 22 -1245 -18 -129 -68 -300 -112 -382 -37 -69 -72 -106 -127 -136 -27 -15 -47 -32 -45 -37 12 -29 352 43 426 91 43 27 33 13 -24 -35 -161 -134 -274 -291 -334 -461 -32 -89 -34 -282 -5 -350 48 -112 146 -204 245 -234 70 -21 199 -21 272 0 153 43 269 211 269 388 -1 159 -88 276 -287 382 -37 20 -79 46 -91 58 -62 55 -68 125 -19 207 18 30 34 59 37 64 2 6 36 30 75 53 214 132 373 316 464 536 177 427 78 886 -262 1217 l-78 76 53 17 c146 47 329 190 424 330 46 67 96 169 120 243 24 73 56 277 46 288 -12 12 -32 -21 -32 -54 0 -85 -52 -216 -122 -313 -83 -113 -187 -188 -325 -233 -110 -36 -253 -36 -361 1 -149 49 -201 91 -517 409 -159 161 -315 311 -346 333 -74 53 -170 101 -249 123 -88 25 -241 25 -330 -2z m343 -733 c65 -21 158 -64 310 -143 32 -17 35 -33 6 -33 -42 0 -197 -53 -292 -101 -120 -60 -229 -139 -324 -235 l-72 -72 -41 44 c-49 53 -73 106 -88 192 -27 153 51 298 194 358 51 21 70 24 144 20 54 -2 113 -13 163 -30z m-1835 -42 l22 -6 0 -654 c0 -411 -4 -654 -10 -654 -20 0 -172 86 -236 134 -120 90 -203 215 -246 371 -32 120 -32 350 1 455 58 187 156 300 297 343 51 16 133 21 172 11z"/>
 <path d="M11118 3579 c-247 -36 -468 -210 -550 -435 -30 -81 -32 -282 -4 -364 44 -130 114 -234 225 -338 58 -55 200 -148 261 -172 19 -7 40 -17 45 -21 21 -15 204 -84 410 -154 507 -172 704 -252 849 -343 147 -94 213 -203 187 -309 -16 -63 -45 -125 -76 -161 -17 -20 -22 -33 -15 -37 27 -17 131 124 169 228 l26 72 5 855 5 855 23 45 c23 44 79 110 93 110 3 0 23 7 44 16 66 27 28 39 -250 78 -143 20 -318 46 -390 57 -71 11 -161 21 -198 22 -66 2 -70 1 -98 -31 -26 -29 -29 -39 -29 -98 l0 -66 -32 21 c-225 146 -466 205 -700 170z m710 -215 l22 -6 0 -660 0 -660 -87 46 c-180 96 -290 200 -354 334 -103 215 -105 510 -4 716 52 104 168 202 269 227 39 9 124 11 154 3z"/>
 <path d="M10 3553 c0 -7 17 -15 38 -18 140 -22 244 -72 341 -161 112 -104 189 -253 208 -402 9 -69 26 -87 31 -32 18 232 165 450 365 543 48 22 86 33 190 54 21 5 37 12 35 16 -2 4 -274 9 -605 10 -465 2 -603 -1 -603 -10z"/>
 <path d="M2573 3557 c-4 -7 39 -27 60 -27 32 0 117 -52 151 -91 41 -48 59 -83 75 -144 7 -27 11 -408 11 -1173 0 -1225 2 -1168 -52 -1204 -64 -42 -142 -26 -179 37 -16 26 -25 33 -33 25 -7 -7 -7 -20 2 -43 11 -28 52 -148 261 -767 l56 -165 585 -1 c322 -1 572 1 555 3 -92 13 -194 93 -241 189 l-29 59 0 1510 c0 1640 -3 1542 56 1635 38 60 89 99 164 124 34 12 64 25 66 29 5 10 -1501 15 -1508 4z"/>
 <path d="M9214 3559 c-5 -9 14 -23 53 -39 46 -18 91 -66 122 -130 l26 -55 3 -945 3 -945 -22 -68 c-26 -80 -74 -135 -145 -166 -29 -13 -44 -25 -38 -31 5 -5 43 -13 84 -19 75 -10 267 -37 455 -66 383 -57 379 -57 421 -14 l29 30 5 1122 5 1122 22 41 c34 64 72 104 122 127 25 12 43 25 41 30 -6 9 -1180 15 -1186 6z"/>
 <path d="M1730 3536 c-5 -14 -21 -59 -34 -99 -14 -39 -50 -144 -81 -232 -30 -88 -75 -218 -100 -290 -24 -71 -69 -202 -100 -290 -31 -88 -65 -185 -75 -215 -10 -30 -55 -161 -100 -290 -45 -129 -90 -260 -100 -290 -10 -30 -48 -140 -85 -245 -36 -104 -81 -235 -100 -290 -114 -334 -115 -337 -161 -358 -43 -21 -76 -21 -113 -3 -37 19 -52 40 -60 79 -4 18 -13 32 -21 32 -13 0 -16 -58 -20 -400 -5 -396 -5 -400 -29 -445 -49 -94 -157 -178 -246 -191 -22 -3 234 -6 569 -5 l610 1 27 80 c15 44 62 179 104 300 42 121 87 249 99 285 13 36 46 133 75 215 29 83 61 175 71 205 10 30 42 120 70 200 29 80 63 177 75 215 61 183 116 330 131 347 22 23 78 39 118 31 37 -7 63 -27 82 -66 17 -31 39 -26 31 7 -3 11 -28 86 -57 166 -28 80 -62 177 -75 215 -13 39 -47 135 -75 215 -28 80 -68 195 -89 255 -21 61 -51 144 -66 185 -14 41 -37 107 -50 145 -13 39 -42 124 -66 190 -23 66 -61 174 -84 239 -23 66 -47 122 -53 124 -7 2 -16 -8 -22 -22z"/>
 <path d="M4630 2127 c-69 -20 -111 -43 -167 -92 -143 -125 -174 -326 -80 -511 116 -228 417 -434 739 -504 57 -13 94 -8 83 10 -3 5 -22 12 -43 15 -65 11 -161 56 -191 90 -36 41 -55 97 -47 137 10 51 53 126 115 201 113 137 133 298 55 448 -33 64 -125 150 -194 181 -77 35 -197 46 -270 25z"/>
 <path d="M11000 2126 c-117 -31 -218 -117 -269 -226 -30 -65 -41 -206 -21 -274 58 -195 230 -374 485 -502 123 -62 326 -123 363 -109 16 6 16 7 -2 21 -11 8 -29 14 -40 14 -51 1 -143 47 -180 90 -72 87 -49 197 71 332 25 29 58 77 72 107 22 49 25 69 25 156 0 92 -3 105 -32 166 -86 178 -289 275 -472 225z"/>
 <path d="M9695 784 c-112 -34 -220 -138 -264 -257 -38 -103 -25 -245 31 -336 82 -133 188 -191 348 -191 182 0 302 75 378 238 24 50 27 69 27 157 0 87 -3 107 -26 155 -91 193 -299 291 -494 234z"/>
 </g>

</svg>